<svg width="40" height="50" viewBox="0 0 40 50" fill="none" xmlns="http://www.w3.org/2000/svg">
<g clip-path="url(#clip0_811_979)">
<path d="M39.8222 14.8013C39.8219 13.9689 39.6617 13.2333 39.3376 12.6022C39.0193 11.9812 38.5426 11.4609 37.9031 11.0495C32.6248 7.66814 27.3414 4.29715 22.0648 0.912379C20.6423 -4.00841e-05 19.263 0.0333958 17.851 0.958913C15.7501 2.3353 5.23147 9.03056 2.09707 11.0476C0.80623 11.8779 0.178108 13.1485 0.177798 14.7998C0.175781 21.5998 0.177798 28.3999 0.175781 35.2C0.175781 36.0141 0.329515 36.7356 0.63931 37.3573C0.957792 37.9968 1.44118 38.5315 2.09536 38.9522C5.22992 40.9692 15.7499 47.6639 17.8504 49.0408C19.263 49.9669 20.6423 50 22.0653 49.0874C27.342 45.7024 32.6258 42.3314 37.9048 38.9501C38.559 38.5296 39.0424 37.9946 39.3609 37.3555C39.6702 36.7337 39.8243 36.0124 39.8243 35.1981C39.8243 35.1981 39.8243 21.6016 39.8222 14.8013Z" fill="white" fill-opacity="0.6"/>
<path d="M31.495 20.2896V22.6118H33.5853V20.2896H34.6304V22.6118H36.7206V23.7729H34.6304V26.095H36.7206V27.2561H34.6304V29.5783H33.5853V27.2561H31.495V29.5783H30.4499V27.2561H28.3599V26.095H30.4499V23.7729H28.3599V22.6118H30.4499V20.2896H31.495ZM33.5853 23.7727H31.495V26.095H33.5853V23.7727Z" fill="#282929"/>
<path d="M20.1032 8.62688C25.5551 8.62688 30.315 11.9163 32.8646 16.8059L32.8397 16.7589L26.4251 20.8622C25.1614 18.4849 22.8447 16.8805 20.1869 16.8474L20.1031 16.8469C16.0503 16.8469 12.7647 20.4973 12.7647 24.9999C12.7633 26.4191 13.097 27.8139 13.7325 29.045C14.9974 31.4984 17.3754 33.1531 20.1032 33.1531C22.848 33.1531 25.2394 31.4773 26.4979 28.9977L26.4673 29.0572L32.8722 33.1795C30.3505 38.0277 25.6558 41.3069 20.2674 41.3723L20.1032 41.3733C14.6341 41.3733 9.86077 38.0635 7.31757 33.1481C6.07606 30.7485 5.36572 27.9666 5.36572 24.9999C5.36572 15.9574 11.9637 8.62671 20.1031 8.62671L20.1032 8.62688Z" fill="#282929"/>
</g>
<defs>
<clipPath id="clip0_811_979">
<rect width="40" height="50" fill="white"/>
</clipPath>
</defs>
</svg>
