<svg width="44" height="50" viewBox="0 0 44 50" fill="none" xmlns="http://www.w3.org/2000/svg">
<path d="M44 0L39.8744 45.1385L21.9997 50L4.12478 45.1385L0 0H44ZM35.6866 9.17822H21.9836H8.03789L8.70484 14.6291H21.9836H22.7295L21.9836 14.9427L9.19015 20.3249L9.61444 25.653L21.9836 25.6935L28.6131 25.7148L28.1888 32.8191L21.9835 34.5838V34.5782L21.9327 34.5925L15.94 33.0644L15.5763 28.6544H15.5565H9.99794H9.97837L10.706 37.1679L21.9837 40.5367V40.5306L22.0041 40.5367L33.2214 37.2292L34.6765 20.3249H21.9837H21.9524L21.9837 20.3112L35.1414 14.6291L35.6866 9.17822Z" fill="white" fill-opacity="0.6"/>
</svg>
