<svg width="126" height="50" viewBox="0 0 126 50" fill="none" xmlns="http://www.w3.org/2000/svg">
<path fill-rule="evenodd" clip-rule="evenodd" d="M27.0326 25.7976C27.0326 25.2734 26.7564 24.7919 26.3042 24.5312L14.2435 17.5882C14.0399 17.4686 13.8119 17.4059 13.5806 17.3973H13.4559C13.2247 17.4059 12.9966 17.4686 12.7896 17.5882L0.729517 24.5312C0.280189 24.7933 0 25.2748 0 25.799L0.0264813 44.4999C0.0264813 44.7591 0.160312 45.0013 0.388108 45.1295C0.610209 45.2662 0.889259 45.2662 1.11136 45.1295L8.28125 41.0212C8.73399 40.7517 9.01019 40.2754 9.01019 39.7563V31.0198C9.01019 30.4985 9.2864 30.017 9.73772 29.7577L12.7902 27.9987C13.0168 27.8677 13.2657 27.8027 13.5191 27.8027C13.7686 27.8027 14.0231 27.8671 14.2435 27.9985L17.2946 29.7569C17.7462 30.0161 18.0235 30.4976 18.0235 31.019V39.7548C18.0235 40.2734 18.3034 40.752 18.7539 41.0198L25.9192 45.1252C26.1442 45.2591 26.4241 45.2591 26.6482 45.1252C26.8691 44.997 27.0092 44.7548 27.0092 44.4956L27.0326 25.7976ZM83.944 35.5343C83.944 35.6645 83.8748 35.7851 83.7618 35.8494L79.6193 38.2386C79.5068 38.3033 79.3679 38.3033 79.2557 38.2386L75.1127 35.8494C74.9988 35.7848 74.9304 35.6643 74.9304 35.5343V30.7492C74.9304 30.6187 74.9988 30.4985 75.1098 30.4329L79.25 28.0398C79.3639 27.9742 79.5034 27.9742 79.6173 28.0398L83.7604 30.4329C83.8743 30.4985 83.9426 30.6187 83.9426 30.7492L83.944 35.5343ZM85.0631 0.0922459C84.837 -0.0336798 84.5619 -0.030261 84.3387 0.0999382C84.1166 0.230992 83.9793 0.470308 83.9793 0.729567V19.248C83.9793 19.4304 83.8825 19.5985 83.7248 19.6896C83.5682 19.7808 83.3731 19.7808 83.2151 19.6896L80.1939 17.9486C79.744 17.6882 79.1899 17.6882 78.7383 17.9486L66.6737 24.9153C66.2229 25.1745 65.9447 25.656 65.9447 26.1745V40.1118C65.9447 40.6332 66.2229 41.1118 66.6737 41.3739L78.7383 48.3454C79.1888 48.6047 79.7435 48.6047 80.1954 48.3454L92.26 41.3711C92.7099 41.109 92.989 40.6303 92.989 40.109V5.374C92.989 4.84523 92.7014 4.3589 92.2401 4.1005L85.0631 0.0922459ZM125.239 30.6232C125.687 30.3628 125.963 29.8819 125.963 29.3634V25.9856C125.963 25.466 125.687 24.9865 125.237 24.725L113.25 17.762C112.797 17.4999 112.242 17.4999 111.789 17.762L99.7272 24.7278C99.2744 24.9899 98.9982 25.4686 98.9982 25.9899V39.9215C98.9982 40.4457 99.2801 40.9301 99.7329 41.1893L111.718 48.0241C112.159 48.2776 112.7 48.2805 113.147 48.0326L120.397 44.0013C120.625 43.8731 120.77 43.6309 120.77 43.3688C120.77 43.1067 120.63 42.8617 120.403 42.7335L108.267 35.7648C108.039 35.6366 107.899 35.3945 107.899 35.1352V30.7648C107.899 30.5039 108.036 30.2634 108.264 30.1335L112.04 27.954C112.265 27.823 112.541 27.823 112.766 27.954L116.544 30.1335C116.769 30.2617 116.909 30.5039 116.909 30.7631V34.199C116.909 34.4583 117.048 34.7004 117.273 34.8315C117.498 34.9597 117.777 34.9597 118.002 34.8286L125.239 30.6232Z" fill="white" fill-opacity="0.6"/>
<path fill-rule="evenodd" clip-rule="evenodd" d="M112.343 29.9714C112.429 29.921 112.536 29.921 112.622 29.9714L114.937 31.3076C115.024 31.3577 115.077 31.45 115.077 31.5498V34.225C115.077 34.3247 115.024 34.417 114.937 34.4671L112.622 35.8033C112.536 35.8537 112.429 35.8537 112.343 35.8033L110.03 34.4671C109.941 34.417 109.887 34.3247 109.887 34.225V31.5498C109.887 31.45 109.938 31.3577 110.027 31.3076L112.343 29.9714Z" fill="white" fill-opacity="0.6"/>
<mask id="mask0_811_953" style="mask-type:luminance" maskUnits="userSpaceOnUse" x="33" y="17" width="27" height="32">
<path d="M45.7657 17.8317L33.7694 24.7596C33.3201 25.0188 33.0444 25.4975 33.0444 26.0148V39.8804C33.0444 40.398 33.3201 40.8764 33.7694 41.1356L45.7666 48.0689C46.215 48.3273 46.768 48.3273 47.2159 48.0689L59.2111 41.1356C59.6581 40.8764 59.9344 40.3977 59.9344 39.8804V26.0148C59.9344 25.4975 59.6582 25.0188 59.2083 24.7596L47.2148 17.8317C46.9898 17.7026 46.7393 17.6379 46.4887 17.6379C46.2381 17.6379 45.9875 17.7026 45.7626 17.8317" fill="white"/>
</mask>
<g mask="url(#mask0_811_953)">
<path d="M72.0569 23.5832L38.2533 7.00488L20.9209 42.382L54.7236 58.9612L72.0569 23.5832Z" fill="white" fill-opacity="0.6"/>
</g>
</svg>
