<svg width="57" height="50" viewBox="0 0 57 50" fill="none" xmlns="http://www.w3.org/2000/svg">
<path d="M46.8654 16.2059C46.2741 16.0053 45.6614 15.8154 45.0306 15.6359C45.1342 15.2186 45.2294 14.8068 45.314 14.402C46.703 7.7546 45.7948 2.39943 42.6937 0.636284C39.7202 -1.05434 34.8571 0.708407 29.9457 4.92252C29.4734 5.32775 28.9998 5.75678 28.5264 6.20642C28.2109 5.90893 27.896 5.62144 27.5819 5.34645C22.4346 0.840448 17.2752 -1.05844 14.1771 0.709807C11.2064 2.40533 10.3266 7.4397 11.5769 13.7395C11.6976 14.348 11.8388 14.9693 11.9984 15.6011C11.2682 15.8055 10.5632 16.0234 9.88872 16.2551C3.85403 18.3295 0 21.5805 0 24.9527C0 28.4354 4.1373 31.9287 10.4229 34.0469C10.9189 34.214 11.4336 34.3721 11.9641 34.5221C11.7919 35.2055 11.6421 35.8751 11.5164 36.5282C10.3243 42.7186 11.2553 47.634 14.2181 49.3189C17.2784 51.0588 22.4145 49.2703 27.4157 44.9602C27.811 44.6195 28.2077 44.2582 28.6051 43.8795C29.1202 44.3685 29.6345 44.8314 30.1461 45.2655C34.9903 49.3755 39.7749 51.0351 42.7349 49.3456C45.7922 47.6006 46.7858 42.3203 45.4958 35.8959C45.3973 35.4052 45.2827 34.904 45.1539 34.3938C45.5146 34.2887 45.8687 34.1801 46.214 34.0673C52.7485 31.9327 57 28.482 57 24.9527C57 21.5683 53.0217 18.2954 46.8654 16.2059ZM45.4482 31.7885C45.1365 31.8902 44.8167 31.9886 44.4908 32.0839C43.7694 29.8323 42.7958 27.438 41.6044 24.9644C42.7413 22.5496 43.6773 20.186 44.3785 17.949C44.9616 18.1153 45.5275 18.2908 46.0728 18.4759C51.3475 20.2662 54.565 22.9131 54.565 24.9527C54.565 27.1251 51.0902 29.9453 45.4482 31.7885ZM43.1071 36.3621C43.6775 39.2029 43.759 41.7713 43.3811 43.7791C43.0416 45.5833 42.3589 46.7862 41.5148 47.2679C39.7184 48.293 35.877 46.9605 31.7341 43.4456C31.2592 43.0427 30.7808 42.6125 30.3009 42.1571C31.907 40.4253 33.5122 38.412 35.0788 36.176C37.8344 35.9349 40.4377 35.5408 42.7985 35.0027C42.9148 35.4651 43.0181 35.9187 43.1071 36.3621ZM19.4326 47.0908C17.6775 47.7018 16.2797 47.7194 15.4348 47.239C13.6368 46.2166 12.8894 42.27 13.9089 36.9759C14.0257 36.3696 14.1647 35.7468 14.3249 35.1102C16.6599 35.6193 19.2442 35.9856 22.0063 36.2064C23.5835 38.3943 25.235 40.4055 26.8994 42.1664C26.5357 42.5125 26.1735 42.842 25.8134 43.1525C23.6019 45.0584 21.3857 46.4106 19.4326 47.0908ZM11.2104 31.7752C8.43106 30.8386 6.13575 29.6213 4.56242 28.293C3.14869 27.0993 2.43492 25.9143 2.43492 24.9527C2.43492 22.9063 5.52933 20.2962 10.6903 18.5222C11.3165 18.3069 11.972 18.104 12.6523 17.9135C13.3655 20.201 14.3012 22.5926 15.4303 25.0111C14.2866 27.4654 13.3376 29.8952 12.6174 32.2095C12.1324 32.0721 11.6625 31.9274 11.2104 31.7752ZM13.9666 13.2784C12.8954 7.88094 13.6068 3.80927 15.397 2.78755C17.304 1.69911 21.5207 3.251 25.965 7.14171C26.2491 7.39039 26.5343 7.65067 26.8203 7.91995C25.1642 9.6732 23.5278 11.6692 21.9646 13.8443C19.2838 14.0893 16.7177 14.4828 14.3584 15.0098C14.2101 14.4215 14.0787 13.8435 13.9666 13.2784ZM38.5538 19.2642C37.9898 18.3037 37.4108 17.3659 36.8205 16.4537C38.6391 16.6804 40.3816 16.9813 42.0179 17.3495C41.5267 18.9018 40.9143 20.5248 40.1936 22.1886C39.6765 21.2208 39.1297 20.245 38.5538 19.2642ZM28.5272 9.63569C29.6503 10.8354 30.7751 12.1748 31.8814 13.628C30.7666 13.5761 29.638 13.5491 28.5 13.5491C27.3728 13.5491 26.2525 13.5755 25.1445 13.6265C26.252 12.1868 27.3865 10.8492 28.5272 9.63569ZM18.4364 19.2808C17.873 20.244 17.3362 21.2145 16.8273 22.1868C16.1182 20.5288 15.5116 18.8984 15.0161 17.3241C16.6424 16.9653 18.3766 16.6719 20.1837 16.4495C19.5851 17.3701 19.0013 18.315 18.4364 19.2808ZM20.2357 33.6271C18.3687 33.4217 16.6084 33.1434 14.9825 32.7945C15.4859 31.1921 16.1059 29.5269 16.8301 27.8332C17.3403 28.8048 17.8791 29.7757 18.446 30.741C19.0234 31.7244 19.6217 32.6877 20.2357 33.6271ZM28.5946 40.4389C27.4405 39.2112 26.2893 37.8532 25.165 36.3924C26.2564 36.4346 27.3691 36.4562 28.5 36.4562C29.6618 36.4562 30.8103 36.4304 31.9408 36.3808C30.8308 37.8679 29.7101 39.228 28.5946 40.4389ZM40.2168 27.7468C40.9787 29.4589 41.6209 31.1154 42.1308 32.6905C40.4782 33.0622 38.6938 33.3616 36.8138 33.584C37.4055 32.6596 37.9896 31.7057 38.5635 30.7245C39.1442 29.7317 39.6955 28.7375 40.2168 27.7468ZM36.4543 29.5251C35.5633 31.0483 34.6485 32.5023 33.7199 33.8748C32.0284 33.9941 30.281 34.0555 28.5 34.0555C26.7262 34.0555 25.0008 34.0012 23.3393 33.8948C22.3732 32.5043 21.4385 31.046 20.5532 29.5382C19.6702 28.0345 18.8577 26.5181 18.1213 25.0103C18.8575 23.4989 19.6681 21.9808 20.546 20.4799L20.5458 20.4802C21.4261 18.9752 22.3525 17.5239 23.3097 16.1421C25.0048 16.0158 26.7431 15.9499 28.4999 15.9499C30.2646 15.9499 32.0052 16.0163 33.6999 16.1437C34.6424 17.5154 35.5626 18.962 36.4463 20.4672C37.34 21.9892 38.1611 23.4972 38.9035 24.9762C38.1633 26.4805 37.3441 28.0037 36.4543 29.5251ZM41.4774 2.71613C43.3862 3.80137 44.1285 8.17813 42.9292 13.9174C42.8527 14.2836 42.7666 14.6567 42.673 15.0347C40.3082 14.4967 37.7403 14.0964 35.0517 13.8477C33.4855 11.6487 31.8625 9.64959 30.2333 7.91885C30.6713 7.50342 31.1087 7.1073 31.5443 6.73348C35.7524 3.12286 39.6855 1.69731 41.4774 2.71613ZM28.5 19.9344C31.311 19.9344 33.5899 22.1811 33.5899 24.9527C33.5899 27.7241 31.311 29.9709 28.5 29.9709C25.689 29.9709 23.4101 27.7241 23.4101 24.9527C23.4101 22.1811 25.689 19.9344 28.5 19.9344Z" fill="white" fill-opacity="0.6"/>
</svg>
