<svg width="50" height="50" viewBox="0 0 50 50" fill="none" xmlns="http://www.w3.org/2000/svg">
<g clip-path="url(#clip0_811_929)">
<path d="M47.6562 0H2.34375C1.04933 0 0 1.04933 0 2.34375V47.6562C0 48.9507 1.04933 50 2.34375 50H47.6562C48.9507 50 50 48.9507 50 47.6562V2.34375C50 1.04933 48.9507 0 47.6562 0Z" fill="white" fill-opacity="0.6"/>
<path fill-rule="evenodd" clip-rule="evenodd" d="M29.0087 38.8547V44.3336C29.8963 44.7898 30.9461 45.1324 32.1581 45.3605C33.3701 45.5891 34.6475 45.7031 35.9903 45.7031C37.299 45.7031 38.5423 45.5777 39.7199 45.3266C40.898 45.0754 41.9305 44.6617 42.8184 44.0852C43.7059 43.5086 44.4086 42.7555 44.9266 41.825C45.4441 40.8949 45.7031 39.7449 45.7031 38.3753C45.7031 37.3823 45.5551 36.512 45.2594 35.7643C44.9633 35.0167 44.5367 34.3518 43.9789 33.7697C43.4215 33.1876 42.7527 32.6654 41.9734 32.2031C41.1938 31.7409 40.3148 31.3043 39.3359 30.8934C38.6191 30.5966 37.9761 30.3084 37.4071 30.0287C36.8381 29.7491 36.3545 29.4637 35.9562 29.1727C35.5578 28.8816 35.2506 28.5734 35.0344 28.2481C34.8182 27.9229 34.71 27.5547 34.71 27.1438C34.71 26.7671 34.8068 26.4276 35.0002 26.1251C35.1937 25.8227 35.4668 25.563 35.8196 25.3461C36.1724 25.1293 36.6048 24.9609 37.1169 24.8411C37.629 24.7212 38.198 24.6613 38.8239 24.6613C39.2793 24.6613 39.7598 24.6955 40.2664 24.764C40.7727 24.8325 41.282 24.938 41.7941 25.0807C42.3062 25.2234 42.8039 25.4032 43.2879 25.62C43.7715 25.8369 44.218 26.088 44.6277 26.3734V21.2542C43.7969 20.9346 42.8895 20.6977 41.9051 20.5436C40.9207 20.3895 39.7914 20.3125 38.5166 20.3125C37.2193 20.3125 35.9903 20.4523 34.8295 20.732C33.6688 21.0116 32.6474 21.4482 31.7655 22.0417C30.8835 22.6353 30.1865 23.3914 29.6744 24.3103C29.1623 25.2291 28.9062 26.3277 28.9062 27.6061C28.9062 29.2383 29.3757 30.6308 30.3145 31.7836C31.2534 32.9365 32.6787 33.9124 34.5905 34.7114C35.3416 35.0195 36.0415 35.322 36.6902 35.6188C37.3388 35.9155 37.8993 36.2237 38.3716 36.5433C38.8438 36.8629 39.2164 37.2111 39.4895 37.5877C39.7629 37.9644 39.8992 38.3924 39.8992 38.8718C39.8992 39.2258 39.8141 39.5539 39.6434 39.8562C39.4727 40.1586 39.2137 40.4211 38.8666 40.6437C38.5195 40.8664 38.0871 41.0406 37.5693 41.166C37.0515 41.2914 36.4455 41.3543 35.7513 41.3543C34.5678 41.3543 33.3957 41.1461 32.2349 40.7293C31.0741 40.3129 29.9988 39.6879 29.0087 38.8547ZM19.8057 25.2166H26.9531V20.7031H7.03125V25.2166H14.1437V45.3125H19.8057V25.2166Z" fill="#282929"/>
</g>
<defs>
<clipPath id="clip0_811_929">
<rect width="50" height="50" fill="white"/>
</clipPath>
</defs>
</svg>
